<?xml version="1.0" encoding="utf-8"?>
<!-- Generator: Adobe Illustrator 26.4.1, SVG Export Plug-In . SVG Version: 6.00 Build 0)  -->
<svg version="1.1" id="Capa_1" xmlns="http://www.w3.org/2000/svg" xmlns:xlink="http://www.w3.org/1999/xlink" x="0px" y="0px"
	 viewBox="0 0 371.26 150.5" style="enable-background:new 0 0 371.26 150.5;" xml:space="preserve">
<style type="text/css">
	.st0{fill:#58225B;}
	.st1{fill:#997698;}
</style>
<g>
	<g>
		<polygon class="st0" points="70,15.79 60.51,44.17 51.02,15.79 39.37,15.79 55.45,58.81 65.56,58.81 81.65,15.79 		"/>
		<path class="st0" d="M223.68,59.07c2.32,0,4.54-0.23,6.59-0.69l0.37-0.08v-8.73l-0.53,0.07c-1.18,0.17-2.32,0.25-3.39,0.25
			c-1.58,0-2.79-0.33-3.57-0.99c-0.77-0.64-1.14-1.68-1.14-3.18V24.64h8.64v-8.83h-8.64V4.39h-10.8v42.19
			c0,2.85,0.28,4.96,0.86,6.44C213.61,57.03,217.52,59.07,223.68,59.07z"/>
		<path class="st0" d="M268.28,17.61c-3.12-1.88-6.71-2.83-10.69-2.83c-3.97,0-7.57,0.95-10.69,2.83c-3.13,1.88-5.6,4.57-7.34,7.99
			c-1.74,3.41-2.62,7.36-2.62,11.74c0,4.38,0.88,8.33,2.62,11.74c1.74,3.42,4.21,6.11,7.34,7.99c3.12,1.88,6.71,2.83,10.69,2.83
			c3.97,0,7.57-0.95,10.69-2.83c3.12-1.88,5.59-4.57,7.34-7.99c1.74-3.41,2.62-7.36,2.62-11.74c0-4.38-0.88-8.32-2.62-11.74
			C273.88,22.18,271.41,19.49,268.28,17.61z M264.61,47c-1.6,2.42-3.89,3.59-7.01,3.59c-3.12,0-5.42-1.17-7.02-3.59
			c-1.62-2.45-2.44-5.7-2.44-9.66c0-3.97,0.82-7.22,2.44-9.66c1.6-2.42,3.89-3.59,7.01-3.59c3.12,0,5.41,1.17,7.01,3.59
			c1.62,2.45,2.44,5.7,2.44,9.66C267.05,41.3,266.23,44.55,264.61,47z"/>
		<path class="st0" d="M305.21,24.14c2.6,0,4.49,0.9,5.37,2.43c0.93,1.62,1.4,4.26,1.4,7.85v24.39h10.82V30.61
			c0-3.31-0.65-6.18-1.93-8.55c-1.28-2.38-3.03-4.21-5.21-5.44c-2.16-1.23-4.61-1.85-7.28-1.85c-8.18,0-11.83,6.93-11.83,6.93v-5.92
			h-10.65v43.02h10.82V34.84c0-2.99,0.84-5.54,2.49-7.55C300.87,25.27,302.85,24.14,305.21,24.14z"/>
		<path class="st0" d="M170.8,55.89c3.51,2.66,7.99,4.01,13.3,4.01c3.81,0,7.3-0.59,9.83-1.65c2.62-1.11,4.69-2.72,6.5-5.09
			c1.7-2.22,2.55-4.78,2.55-7.62c0-3.5-1.08-6.23-3.21-8.12c-2.16-1.92-5.23-3.3-9.39-4.24l-6.56-1.3c-2.64-0.59-4.3-1.12-5.24-1.68
			c-1.09-0.65-1.38-1.91-1.38-2.55c0-1.26,0.53-2.26,1.64-3.05c1.16-0.83,2.76-1.24,4.76-1.24c2.3,0,4.35,0.62,5.62,1.71
			c1.14,0.97,1.77,2.37,1.94,4.27l10.53-1.38c-0.54-3.93-2.4-7.1-5.52-9.42c-3.16-2.34-7.68-3.68-12.41-3.68
			c-3.29,0-6.69,0.64-9.32,1.75c-2.69,1.13-4.83,2.72-6.37,4.71c-1.56,2.02-2.35,4.31-2.35,6.81c0,3.4,1.13,6.06,3.35,7.92
			c2.15,1.8,5.3,3.18,9.37,4.1l6.59,1.39c2.7,0.6,4.54,1.26,5.45,1.97c0.84,0.64,1.24,1.55,1.24,2.76c0,1.61-0.59,2.83-1.81,3.73
			c-1.26,0.93-3.03,1.41-5.25,1.41c-2.69,0-4.87-0.72-6.48-2.14c-1.46-1.29-2.42-3.19-2.85-5.67l-10.63,1.2
			C165.29,49.53,167.33,53.26,170.8,55.89z"/>
		<path class="st0" d="M125.92,36.69c0-4.09-0.85-7.84-2.54-11.16c-1.69-3.32-4.06-5.97-7.04-7.85c-2.9-1.83-6.59-2.84-10.37-2.84
			c-4.01,0-8.15,1.08-11.07,2.88c-3.1,1.91-5.55,4.61-7.29,8.02c-1.74,3.4-2.62,7.34-2.62,11.71c0,4.54,0.84,8.53,2.49,11.87
			c1.66,3.36,4.05,5.99,7.1,7.82c2.91,1.75,7.03,2.75,11.31,2.75c5.48,0,10.07-1.44,13.27-4.16c3.06-2.6,5.34-6.17,6.44-10.06
			l-10.89-1.1c-0.51,1.88-1.45,3.35-2.85,4.51c-1.49,1.23-3.53,1.88-5.89,1.88c-3.03,0-5.43-0.98-7.14-2.92
			c-1.59-1.8-2.58-4.42-2.86-7.57l-0.02-0.19l29.96,0V36.69z M96.27,32.24l0.02-0.2c0.27-2.29,1.21-4.3,2.72-5.8
			c1.78-1.78,4.13-2.73,6.79-2.73c2.58,0,4.76,0.93,6.31,2.69c1.54,1.75,2.29,3.55,2.45,5.84l0.01,0.19H96.27z"/>
		<g>
			<polygon class="st0" points="0,0 0,23.52 11.76,23.52 11.76,11.76 35.29,11.76 35.29,0 			"/>
			<polygon class="st0" points="0,35.29 0,58.81 35.29,58.81 35.29,47.05 11.76,47.05 11.76,35.29 			"/>
			<rect x="11.76" y="23.52" class="st0" width="11.76" height="11.76"/>
		</g>
		<path class="st0" d="M371.26,36.69c0-4.09-0.85-7.84-2.54-11.16c-1.69-3.32-4.06-5.97-7.04-7.85c-2.9-1.83-6.59-2.84-10.37-2.84
			c-4.01,0-8.15,1.08-11.07,2.88c-3.1,1.91-5.55,4.61-7.29,8.02c-1.74,3.4-2.62,7.34-2.62,11.71c0,4.54,0.84,8.53,2.49,11.87
			c1.66,3.36,4.05,5.99,7.1,7.82c2.91,1.75,7.03,2.75,11.31,2.75c5.48,0,10.07-1.44,13.27-4.16c3.06-2.6,5.34-6.17,6.44-10.06
			l-10.89-1.1c-0.51,1.88-1.45,3.35-2.85,4.51c-1.49,1.23-3.53,1.88-5.89,1.88c-3.03,0-5.43-0.98-7.14-2.92
			c-1.59-1.8-2.58-4.42-2.86-7.57l-0.02-0.19l29.96,0V36.69z M341.61,32.24l0.02-0.2c0.27-2.29,1.21-4.3,2.72-5.8
			c1.78-1.78,4.13-2.73,6.79-2.73c2.58,0,4.76,0.93,6.31,2.69c1.54,1.75,2.29,3.55,2.45,5.84l0.01,0.19H341.61z"/>
		<path class="st0" d="M156.22,26.14c0.57,0,1.13,0.03,1.67,0.08l0.65,0.07V14.92l-0.53-0.06c-0.52-0.06-1.21-0.09-2.04-0.09
			c-8.08,0-10.84,1.02-10.84,1.02h-10.66v43.02h10.82v-22.2c0-3.41,0.94-6.03,2.81-7.79C149.98,27.04,152.71,26.14,156.22,26.14z"/>
	</g>
	<g>
		<path class="st1" d="M83.33,97.3c-2.83-2.34-6.91-3.53-12.1-3.53c-5.09,0-9.26,1.32-12.38,3.94c-3.13,2.62-4.86,6.1-5.12,10.35
			l-0.02,0.36l9.95,0.88l0.02-0.39c0.1-2.26,0.87-4.1,2.28-5.46c1.41-1.35,3.3-2.04,5.59-2.04c1.95,0,3.47,0.41,4.52,1.22
			c1.04,0.8,1.54,1.79,1.54,3.02c0,1.35-0.38,2.28-1.15,2.86c-0.82,0.61-2.15,1.11-3.98,1.47l-5.34,1.13
			c-4.65,0.98-8.21,2.48-10.57,4.45c-2.41,2.01-3.63,4.89-3.63,8.55c0,2.5,0.66,4.72,1.95,6.61c1.29,1.89,3.02,3.33,5.14,4.3
			c2.11,0.96,4.45,1.45,6.95,1.45c2.61,0,4.98-0.49,7.03-1.45c1.68-0.79,3.02-1.75,3.98-2.86v3.34h9.63v-27.43
			C87.63,103.29,86.18,99.66,83.33,97.3z M77.84,116.29v4.75c0,2.42-0.78,4.37-2.32,5.8c-1.54,1.44-3.55,2.17-5.95,2.17
			c-1.9,0-3.46-0.46-4.64-1.38c-1.17-0.9-1.74-2.11-1.74-3.67c0-1.16,0.37-2.12,1.12-2.95c0.77-0.85,1.9-1.59,3.37-2.22
			C69.77,117.87,73.19,117.03,77.84,116.29z"/>
		<path class="st1" d="M127.93,96.51c-2.67-1.82-5.81-2.74-9.33-2.74c-2.89,0-5.4,0.63-7.46,1.88c-1.68,1.01-3.09,2.22-4.19,3.59
			v-4.49H96.93v55.75h10.18V131.2c1.14,1.34,2.55,2.51,4.23,3.49c2.04,1.19,4.48,1.79,7.26,1.79c3.52,0,6.65-0.92,9.33-2.74
			c2.67-1.82,4.73-4.38,6.14-7.61c1.4-3.22,2.11-6.92,2.11-11c0-4.08-0.71-7.78-2.11-11C132.66,100.89,130.59,98.33,127.93,96.51z
			 M125.85,115.13c0,3.95-0.82,7.14-2.45,9.46c-1.62,2.32-3.86,3.44-6.84,3.44c-2.96,0-5.35-1.15-7.13-3.42
			c-1.8-2.3-2.71-5.49-2.71-9.49c0-4,0.91-7.19,2.71-9.49c1.78-2.27,4.17-3.42,7.13-3.42c2.99,0,5.23,1.13,6.84,3.44
			C125.02,107.99,125.85,111.18,125.85,115.13z"/>
		<rect x="143.6" y="94.75" class="st1" width="10.18" height="40.76"/>
		<rect x="143.6" y="80.96" class="st1" width="10.18" height="9.35"/>
		<path class="st1" d="M217.04,97.3c-2.83-2.34-6.91-3.53-12.1-3.53c-5.09,0-9.26,1.32-12.38,3.94c-3.13,2.62-4.86,6.1-5.12,10.35
			l-0.02,0.36l9.95,0.88l0.02-0.39c0.1-2.27,0.87-4.1,2.28-5.46s3.3-2.04,5.59-2.04c1.95,0,3.47,0.41,4.52,1.22
			c1.04,0.8,1.54,1.79,1.54,3.02c0,1.35-0.38,2.28-1.15,2.86c-0.82,0.61-2.15,1.11-3.98,1.47l-5.34,1.13
			c-4.65,0.98-8.21,2.48-10.57,4.45c-2.41,2.01-3.63,4.89-3.63,8.55c0,2.5,0.66,4.72,1.95,6.61c1.29,1.89,3.02,3.33,5.14,4.3
			c2.11,0.96,4.45,1.45,6.95,1.45c2.61,0,4.98-0.49,7.03-1.45c1.68-0.79,3.02-1.75,3.98-2.86v3.34h9.63v-27.43
			C221.34,103.29,219.89,99.66,217.04,97.3z M211.55,116.29v4.75c0,2.42-0.78,4.37-2.32,5.8c-1.54,1.44-3.55,2.17-5.95,2.17
			c-1.9,0-3.46-0.46-4.64-1.38c-1.17-0.91-1.74-2.11-1.74-3.67c0-1.16,0.37-2.12,1.12-2.95c0.77-0.85,1.9-1.59,3.37-2.22
			C203.48,117.87,206.9,117.03,211.55,116.29z"/>
		<rect x="230.64" y="80.96" class="st1" width="10.18" height="54.55"/>
		<path class="st1" d="M178.22,127.82c-1.53,0-2.69-0.32-3.45-0.97c-0.75-0.62-1.12-1.67-1.12-3.11v-20.28h7.86v-8.28h-7.86V80.96
			h-10.18v43.58c0,2.68,0.27,4.74,0.81,6.13c1.47,3.81,5.18,5.75,11.04,5.75c2.21,0,4.33-0.22,6.29-0.66l0.29-0.07v-8.18l-0.43,0.06
			C180.34,127.73,179.24,127.82,178.22,127.82z"/>
		<path class="st1" d="M37.67,114.66c-0.71,3.8-2.19,6.96-4.37,9.38c-2.16,2.39-5.17,3.6-8.94,3.6c-3.12,0-5.85-0.87-8.11-2.6
			c-2.27-1.73-4.04-4.16-5.25-7.22c-1.22-3.07-1.84-6.63-1.84-10.56c0-3.93,0.62-7.48,1.84-10.56c1.21-3.06,2.97-5.48,5.22-7.22
			c2.24-1.72,4.93-2.6,8-2.6c3.72,0,6.73,1.24,8.94,3.69c2.23,2.47,3.63,5.46,4.15,8.88l0.06,0.39l10.16-2.44l-0.07-0.35
			c-0.69-3.38-2.01-6.53-3.93-9.37c-1.93-2.84-4.53-5.19-7.73-6.96c-3.21-1.78-7.03-2.68-11.36-2.68c-4.92,0-9.35,1.26-13.18,3.75
			c-3.82,2.48-6.81,5.98-8.9,10.4c-2.08,4.4-3.14,9.47-3.14,15.06c0,5.65,1.07,10.74,3.18,15.14c2.11,4.42,5.11,7.9,8.9,10.35
			c3.79,2.46,8.19,3.7,13.06,3.7c6.06,0,11.18-1.82,15.23-5.4c4.03-3.57,6.8-8.28,8.23-14l0.09-0.36l-10.16-2.44L37.67,114.66z"/>
	</g>
</g>
</svg>
